<?xml version="1.0" encoding="utf-8"?>
<svg version="1.1"
	 id="svg-001" xmlns:cc="http://creativecommons.org/ns#" xmlns:dc="http://purl.org/dc/elements/1.1/" xmlns:rdf="http://www.w3.org/1999/02/22-rdf-syntax-ns#" xmlns:svg="http://www.w3.org/2000/svg"
	 xmlns="http://www.w3.org/2000/svg" xmlns:xlink="http://www.w3.org/1999/xlink" x="0px" y="0px" viewBox="0 0 240 240"
	 style="enable-background:new 0 0 240 240;" xml:space="preserve">
<style type="text/css">
	.st0{fill:#E01E69;}
	.st1{fill:url(#path7508_1_);}
	.st2{fill:url(#path7510_1_);}
</style>
<path class="st0" d="M215,240H25c-13.8,0-25-11.2-25-25V25C0,11.2,11.2,0,25,0h190c13.8,0,25,11.2,25,25v190
	C240,228.8,228.8,240,215,240z"/>
<title  id="title-001">JSON logo</title>
<linearGradient id="path7508_1_" gradientUnits="userSpaceOnUse" x1="-627.296" y1="-212.9023" x2="-514.4493" y2="-325.7649" gradientTransform="matrix(0.9988 0 0 -0.9987 688.7932 -147.5164)">
	<stop  offset="0" style="stop-color:#FFFFFF"/>
	<stop  offset="1" style="stop-color:#7F7F7F"/>
</linearGradient>
<path id="path7508" class="st1" d="M119.9,159.1c35.4,48.3,70-13.5,70-50.6c-0.1-43.9-44.5-68.4-70-68.4c-40.9,0-79.8,33.8-79.8,80
	c0,51.4,44.6,79.9,79.8,79.9c-8-1.1-34.5-6.8-34.9-68c-0.2-41.3,13.5-57.9,34.8-50.6c0.5,0.2,23.5,9.3,23.5,39
	C143.3,149.9,119.9,159.1,119.9,159.1z"/>
<linearGradient id="path7510_1_" gradientUnits="userSpaceOnUse" x1="-509.34" y1="-320.6556" x2="-622.1867" y2="-207.793" gradientTransform="matrix(0.9988 0 0 -0.9987 688.7932 -147.5164)">
	<stop  offset="0" style="stop-color:#FFFFFF"/>
	<stop  offset="1" style="stop-color:#7F7F7F"/>
</linearGradient>
<path id="path7510" class="st2" d="M119.8,81.4c-23.4-8.1-52,11.2-52,49.8c0,63,46.7,68.8,52.4,68.8c40.9,0,79.8-33.8,79.8-80
	c0-51.4-44.6-79.9-79.8-79.9c9.7-1.3,52.5,10.5,52.5,69c0,38.1-32,58.9-52.7,50c-0.5-0.2-23.5-9.3-23.5-39
	C96.5,90.7,119.8,81.4,119.8,81.4z"/>
</svg>
